<svg width="40" height="40" viewBox="0 0 40 40" fill="none" xmlns="http://www.w3.org/2000/svg">
<path fill-rule="evenodd" clip-rule="evenodd" d="M25.4022 1.66663H14.5978C13.2562 1.66661 12.1489 1.66659 11.247 1.74028C10.3101 1.81683 9.44896 1.9811 8.64007 2.39325C7.38565 3.03241 6.36578 4.05228 5.72663 5.30669C5.31447 6.11559 5.1502 6.97676 5.07366 7.91359C4.99996 8.81557 4.99998 9.92284 5 11.2644V28.7355C4.99998 30.0771 4.99996 31.1844 5.07366 32.0863C5.1502 33.0232 5.31447 33.8843 5.72663 34.6932C6.36578 35.9476 7.38565 36.9675 8.64007 37.6067C9.44896 38.0188 10.3101 38.1831 11.247 38.2596C12.1489 38.3333 13.2562 38.3333 14.5978 38.3333H21.6912C21.7403 38.3333 21.7649 38.3333 21.7793 38.3328C22.4938 38.308 22.8474 37.4542 22.3598 36.9315C22.3499 36.9209 22.3325 36.9036 22.2978 36.8688C20.3452 34.9162 20.3452 31.7504 22.2978 29.7978C24.1826 27.913 27.1977 27.8475 29.161 29.6012L33.1311 25.6311C33.4417 25.3205 33.783 25.0593 34.1452 24.8476C34.5155 24.631 34.7006 24.5228 34.7881 24.4249C34.8797 24.3223 34.9173 24.2568 34.9596 24.1259C35 24.0009 35 23.8366 35 23.5078V11.2644C35 9.92282 35 8.81557 34.9263 7.91359C34.8498 6.97676 34.6855 6.11559 34.2734 5.30669C33.6342 4.05228 32.6144 3.03241 31.3599 2.39325C30.551 1.9811 29.6899 1.81683 28.753 1.74028C27.8511 1.66659 26.7438 1.66661 25.4022 1.66663ZM13.3333 15C12.4129 15 11.6667 15.7462 11.6667 16.6666C11.6667 17.5871 12.4129 18.3333 13.3333 18.3333H23.3333C24.2538 18.3333 25 17.5871 25 16.6666C25 15.7462 24.2538 15 23.3333 15H13.3333ZM11.6667 23.3333C11.6667 22.4128 12.4129 21.6666 13.3333 21.6666H16.6667C17.5871 21.6666 18.3333 22.4128 18.3333 23.3333C18.3333 24.2538 17.5871 25 16.6667 25H13.3333C12.4129 25 11.6667 24.2538 11.6667 23.3333ZM13.3333 8.33329C12.4129 8.33329 11.6667 9.07949 11.6667 9.99996C11.6667 10.9204 12.4129 11.6666 13.3333 11.6666H26.6667C27.5871 11.6666 28.3333 10.9204 28.3333 9.99996C28.3333 9.07949 27.5871 8.33329 26.6667 8.33329H13.3333Z" fill="white"/>
<path d="M37.8452 30.3451C38.4961 29.6943 38.4961 28.639 37.8452 27.9881C37.1943 27.3372 36.139 27.3372 35.4882 27.9881L29.1667 34.3096L27.0118 32.1548C26.361 31.5039 25.3057 31.5039 24.6548 32.1548C24.0039 32.8057 24.0039 33.8609 24.6548 34.5118L27.9882 37.8451C28.639 38.496 29.6943 38.496 30.3452 37.8451L37.8452 30.3451Z" fill="white"/>
</svg>
