<svg width="38" height="34" viewBox="0 0 38 34" fill="none" xmlns="http://www.w3.org/2000/svg">
<path fill-rule="evenodd" clip-rule="evenodd" d="M0.666656 2.00004C0.666656 1.07957 1.41285 0.333374 2.33332 0.333374H35.6667C36.5871 0.333374 37.3333 1.07957 37.3333 2.00004C37.3333 2.92052 36.5871 3.66671 35.6667 3.66671V15.7356C35.6667 17.0772 35.6667 18.1844 35.593 19.0864C35.5165 20.0232 35.3522 20.8844 34.94 21.6933C34.3009 22.9477 33.281 23.9676 32.0266 24.6068C31.2177 25.0189 30.3565 25.1832 29.4197 25.2597C28.5177 25.3334 27.4104 25.3334 26.0688 25.3334H23.6034L30.067 30.7197C30.7741 31.3089 30.8697 32.3599 30.2804 33.067C29.6911 33.7741 28.6402 33.8697 27.9331 33.2804L20.6667 27.2251V32C20.6667 32.9205 19.9205 33.6667 19 33.6667C18.0795 33.6667 17.3333 32.9205 17.3333 32V27.2251L10.067 33.2804C9.35988 33.8697 8.30894 33.7741 7.71966 33.067C7.13039 32.3599 7.22593 31.3089 7.93306 30.7197L14.3966 25.3334H11.9312C10.5896 25.3334 9.48228 25.3334 8.58028 25.2597C7.64345 25.1832 6.78228 25.0189 5.97339 24.6068C4.71897 23.9676 3.6991 22.9477 3.05995 21.6933C2.6478 20.8844 2.48352 20.0232 2.40698 19.0864C2.33329 18.1844 2.3333 17.0771 2.33332 15.7355L2.33332 3.66671C1.41285 3.66671 0.666656 2.92052 0.666656 2.00004ZM27.3333 8.66671C27.3333 7.74623 26.5871 7.00004 25.6667 7.00004C24.7462 7.00004 24 7.74623 24 8.66671V17C24 17.9205 24.7462 18.6667 25.6667 18.6667C26.5871 18.6667 27.3333 17.9205 27.3333 17V8.66671ZM19 10.3334C19.9205 10.3334 20.6667 11.0796 20.6667 12V17C20.6667 17.9205 19.9205 18.6667 19 18.6667C18.0795 18.6667 17.3333 17.9205 17.3333 17V12C17.3333 11.0796 18.0795 10.3334 19 10.3334ZM12.3333 13.6667C13.2538 13.6667 14 14.4129 14 15.3334V17C14 17.9205 13.2538 18.6667 12.3333 18.6667C11.4128 18.6667 10.6667 17.9205 10.6667 17V15.3334C10.6667 14.4129 11.4128 13.6667 12.3333 13.6667Z" fill="white"/>
</svg>
