<svg width="40" height="40" viewBox="0 0 40 40" fill="none" xmlns="http://www.w3.org/2000/svg">
<path fill-rule="evenodd" clip-rule="evenodd" d="M21.7803 9.68083C21.9565 8.77739 22.8318 8.1879 23.7353 8.36416C25.6887 8.74529 27.484 9.70068 28.8914 11.108C30.2987 12.5154 31.2541 14.3107 31.6353 16.2642C31.8115 17.1676 31.222 18.0429 30.3186 18.2191C29.4152 18.3954 28.5399 17.8059 28.3636 16.9025C28.1095 15.6002 27.4726 14.4033 26.5344 13.4651C25.5961 12.5268 24.3993 11.8899 23.0969 11.6358C22.1935 11.4595 21.604 10.5843 21.7803 9.68083Z" fill="white"/>
<path fill-rule="evenodd" clip-rule="evenodd" d="M21.7596 3.1493C21.8613 2.23445 22.6853 1.57521 23.6001 1.67684C27.358 2.09432 30.8623 3.77716 33.5376 6.44908C36.2129 9.12099 37.9001 12.6232 38.3223 16.3805C38.4251 17.2953 37.7669 18.1201 36.8522 18.2229C35.9375 18.3257 35.1126 17.6675 35.0099 16.7528C34.6721 13.7468 33.3223 10.9451 31.1821 8.80758C29.0418 6.67005 26.2384 5.32377 23.2321 4.98979C22.3172 4.88816 21.658 4.06414 21.7596 3.1493Z" fill="white"/>
<path fill-rule="evenodd" clip-rule="evenodd" d="M10.5626 29.5869C6.50608 25.5304 3.55638 20.4788 1.98873 14.9634C1.74289 14.0984 1.55224 13.4276 1.54951 12.5078C1.54638 11.4565 1.88889 10.1394 2.40377 9.22284C3.28924 7.64656 5.19052 5.62647 6.83272 4.79585C8.25162 4.07817 9.92729 4.07817 11.3462 4.79585C12.7389 5.5003 14.3366 7.13097 15.1848 8.43555C16.2622 10.0928 16.2622 12.2292 15.1848 13.8865C14.896 14.3305 14.4845 14.7414 14.0067 15.2183C13.8579 15.3669 13.6942 15.4742 13.8029 15.7007C14.8826 17.9495 16.3551 20.0588 18.2229 21.9266C20.0907 23.7944 22.2 25.2669 24.4488 26.3466C24.6817 26.4584 24.7771 26.2971 24.9312 26.1428C25.4081 25.665 25.819 25.2535 26.263 24.9648C27.9203 23.8873 30.0567 23.8873 31.714 24.9648C33.0185 25.813 34.6492 27.4106 35.3537 28.8033C36.0713 30.2222 36.0713 31.8979 35.3537 33.3168C34.5292 34.9467 32.5257 36.8475 30.9267 37.7457C30.0101 38.2606 28.693 38.6031 27.6417 38.6C26.7219 38.5973 26.0511 38.4066 25.1861 38.1608C19.6707 36.5933 14.6191 33.6434 10.5626 29.5869Z" fill="white"/>
</svg>
